0
SECTION
2
ENTITIES
0
POLYLINE
8
BLACK
66
1
70
1
0
VERTEX
8
BLACK
10
12.300000
20
-0.000000
42
-1.000000000
0
VERTEX
8
BLACK
10
-12.300000
20
-0.000000
42
0.000000000
0
VERTEX
8
BLACK
10
-3.250000
20
-0.000000
42
1.000000000
0
VERTEX
8
BLACK
10
3.250000
20
-0.000000
42
0.000000000
0
SEQEND
0
POLYLINE
8
CLEAR
66
1
70
1
0
VERTEX
8
CLEAR
10
-12.300000
20
-0.000000
42
-1.000000000
0
VERTEX
8
CLEAR
10
12.300000
20
0.000000
42
0.000000000
0
VERTEX
8
CLEAR
10
3.250000
20
0.000000
42
1.000000000
0
VERTEX
8
CLEAR
10
-3.250000
20
-0.000000
42
0.000000000
0
SEQEND
0
POLYLINE
8
BLACK
66
1
70
1
0
VERTEX
8
BLACK
10
21.350000
20
-0.000000
42
-0.414213562
0
VERTEX
8
BLACK
10
0.000000
20
-21.350000
42
0.000000000
0
VERTEX
8
BLACK
10
0.000000
20
-12.300000
42
0.414213562
0
VERTEX
8
BLACK
10
12.300000
20
-0.000000
42
0.000000000
0
SEQEND
0
POLYLINE
8
CLEAR
66
1
70
1
0
VERTEX
8
CLEAR
10
0.000000
20
-21.350000
42
-1.000000000
0
VERTEX
8
CLEAR
10
-0.000000
20
21.350000
42
0.000000000
0
VERTEX
8
CLEAR
10
-0.000000
20
12.300000
42
1.000000000
0
VERTEX
8
CLEAR
10
0.000000
20
-12.300000
42
0.000000000
0
SEQEND
0
POLYLINE
8
BLACK
66
1
70
1
0
VERTEX
8
BLACK
10
-0.000000
20
21.350000
42
-0.414213562
0
VERTEX
8
BLACK
10
21.350000
20
0.000000
42
0.000000000
0
VERTEX
8
BLACK
10
12.300000
20
0.000000
42
0.414213562
0
VERTEX
8
BLACK
10
-0.000000
20
12.300000
42
0.000000000
0
SEQEND
0
POLYLINE
8
BLACK
66
1
70
1
0
VERTEX
8
BLACK
10
30.400000
20
-0.000000
42
-0.198912367
0
VERTEX
8
BLACK
10
21.496046
20
-21.496046
42
0.000000000
0
VERTEX
8
BLACK
10
15.096730
20
-15.096730
42
0.198912367
0
VERTEX
8
BLACK
10
21.350000
20
-0.000000
42
0.000000000
0
SEQEND
0
POLYLINE
8
CLEAR
66
1
70
1
0
VERTEX
8
CLEAR
10
21.496046
20
-21.496046
42
-0.414213562
0
VERTEX
8
CLEAR
10
-21.496046
20
-21.496046
42
0.000000000
0
VERTEX
8
CLEAR
10
-15.096730
20
-15.096730
42
0.414213562
0
VERTEX
8
CLEAR
10
15.096730
20
-15.096730
42
0.000000000
0
SEQEND
0
POLYLINE
8
BLACK
66
1
70
1
0
VERTEX
8
BLACK
10
-21.496046
20
-21.496046
42
-0.414213562
0
VERTEX
8
BLACK
10
-21.496046
20
21.496046
42
0.000000000
0
VERTEX
8
BLACK
10
-15.096730
20
15.096730
42
0.414213562
0
VERTEX
8
BLACK
10
-15.096730
20
-15.096730
42
0.000000000
0
SEQEND
0
POLYLINE
8
CLEAR
66
1
70
1
0
VERTEX
8
CLEAR
10
-21.496046
20
21.496046
42
-0.414213562
0
VERTEX
8
CLEAR
10
21.496046
20
21.496046
42
0.000000000
0
VERTEX
8
CLEAR
10
15.096730
20
15.096730
42
0.414213562
0
VERTEX
8
CLEAR
10
-15.096730
20
15.096730
42
0.000000000
0
SEQEND
0
POLYLINE
8
BLACK
66
1
70
1
0
VERTEX
8
BLACK
10
21.496046
20
21.496046
42
-0.198912367
0
VERTEX
8
BLACK
10
30.400000
20
0.000000
42
0.000000000
0
VERTEX
8
BLACK
10
21.350000
20
0.000000
42
0.198912367
0
VERTEX
8
BLACK
10
15.096730
20
15.096730
42
0.000000000
0
SEQEND
0
POLYLINE
8
BLACK
66
1
70
1
0
VERTEX
8
BLACK
10
39.450000
20
-0.000000
42
-0.098491403
0
VERTEX
8
BLACK
10
36.447048
20
-15.096861
42
0.000000000
0
VERTEX
8
BLACK
10
28.085938
20
-11.633576
42
0.098491403
0
VERTEX
8
BLACK
10
30.400000
20
-0.000000
42
0.000000000
0
SEQEND
0
POLYLINE
8
CLEAR
66
1
70
1
0
VERTEX
8
CLEAR
10
36.447048
20
-15.096861
42
-0.198912367
0
VERTEX
8
CLEAR
10
15.096861
20
-36.447048
42
0.000000000
0
VERTEX
8
CLEAR
10
11.633576
20
-28.085938
42
0.198912367
0
VERTEX
8
CLEAR
10
28.085938
20
-11.633576
42
0.000000000
0
SEQEND
0
POLYLINE
8
BLACK
66
1
70
1
0
VERTEX
8
BLACK
10
15.096861
20
-36.447048
42
-0.198912367
0
VERTEX
8
BLACK
10
-15.096861
20
-36.447048
42
0.000000000
0
VERTEX
8
BLACK
10
-11.633576
20
-28.085938
42
0.198912367
0
VERTEX
8
BLACK
10
11.633576
20
-28.085938
42
0.000000000
0
SEQEND
0
POLYLINE
8
CLEAR
66
1
70
1
0
VERTEX
8
CLEAR
10
-15.096861
20
-36.447048
42
-0.198912367
0
VERTEX
8
CLEAR
10
-36.447048
20
-15.096861
42
0.000000000
0
VERTEX
8
CLEAR
10
-28.085938
20
-11.633576
42
0.198912367
0
VERTEX
8
CLEAR
10
-11.633576
20
-28.085938
42
0.000000000
0
SEQEND
0
POLYLINE
8
BLACK
66
1
70
1
0
VERTEX
8
BLACK
10
-36.447048
20
-15.096861
42
-0.198912367
0
VERTEX
8
BLACK
10
-36.447048
20
15.096861
42
0.000000000
0
VERTEX
8
BLACK
10
-28.085938
20
11.633576
42
0.198912367
0
VERTEX
8
BLACK
10
-28.085938
20
-11.633576
42
0.000000000
0
SEQEND
0
POLYLINE
8
CLEAR
66
1
70
1
0
VERTEX
8
CLEAR
10
-36.447048
20
15.096861
42
-0.198912367
0
VERTEX
8
CLEAR
10
-15.096861
20
36.447048
42
0.000000000
0
VERTEX
8
CLEAR
10
-11.633576
20
28.085938
42
0.198912367
0
VERTEX
8
CLEAR
10
-28.085938
20
11.633576
42
0.000000000
0
SEQEND
0
POLYLINE
8
BLACK
66
1
70
1
0
VERTEX
8
BLACK
10
-15.096861
20
36.447048
42
-0.198912367
0
VERTEX
8
BLACK
10
15.096861
20
36.447048
42
0.000000000
0
VERTEX
8
BLACK
10
11.633576
20
28.085938
42
0.198912367
0
VERTEX
8
BLACK
10
-11.633576
20
28.085938
42
0.000000000
0
SEQEND
0
POLYLINE
8
CLEAR
66
1
70
1
0
VERTEX
8
CLEAR
10
15.096861
20
36.447048
42
-0.198912367
0
VERTEX
8
CLEAR
10
36.447048
20
15.096861
42
0.000000000
0
VERTEX
8
CLEAR
10
28.085938
20
11.633576
42
0.198912367
0
VERTEX
8
CLEAR
10
11.633576
20
28.085938
42
0.000000000
0
SEQEND
0
POLYLINE
8
BLACK
66
1
70
1
0
VERTEX
8
BLACK
10
36.447048
20
15.096861
42
-0.098491403
0
VERTEX
8
BLACK
10
39.450000
20
0.000000
42
0.000000000
0
VERTEX
8
BLACK
10
30.400000
20
0.000000
42
0.098491403
0
VERTEX
8
BLACK
10
28.085938
20
11.633576
42
0.000000000
0
SEQEND
0
POLYLINE
8
BLACK
66
1
70
1
0
VERTEX
8
BLACK
10
48.500000
20
-0.000000
42
-0.049126850
0
VERTEX
8
BLACK
10
47.568086
20
-9.461881
42
0.000000000
0
VERTEX
8
BLACK
10
38.691979
20
-7.696313
42
0.049126850
0
VERTEX
8
BLACK
10
39.450000
20
-0.000000
42
0.000000000
0
SEQEND
0
POLYLINE
8
CLEAR
66
1
70
1
0
VERTEX
8
CLEAR
10
47.568086
20
-9.461881
42
-0.098491403
0
VERTEX
8
CLEAR
10
40.326276
20
-26.945156
42
0.000000000
0
VERTEX
8
CLEAR
10
32.801476
20
-21.917246
42
0.098491403
0
VERTEX
8
CLEAR
10
38.691979
20
-7.696313
42
0.000000000
0
SEQEND
0
POLYLINE
8
BLACK
66
1
70
1
0
VERTEX
8
BLACK
10
40.326276
20
-26.945156
42
-0.098491403
0
VERTEX
8
BLACK
10
26.945156
20
-40.326276
42
0.000000000
0
VERTEX
8
BLACK
10
21.917246
20
-32.801476
42
0.098491403
0
VERTEX
8
BLACK
10
32.801476
20
-21.917246
42
0.000000000
0
SEQEND
0
POLYLINE
8
CLEAR
66
1
70
1
0
VERTEX
8
CLEAR
10
26.945156
20
-40.326276
42
-0.098491403
0
VERTEX
8
CLEAR
10
9.461881
20
-47.568086
42
0.000000000
0
VERTEX
8
CLEAR
10
7.696313
20
-38.691979
42
0.098491403
0
VERTEX
8
CLEAR
10
21.917246
20
-32.801476
42
0.000000000
0
SEQEND
0
POLYLINE
8
BLACK
66
1
70
1
0
VERTEX
8
BLACK
10
9.461881
20
-47.568086
42
-0.098491403
0
VERTEX
8
BLACK
10
-9.461881
20
-47.568086
42
0.000000000
0
VERTEX
8
BLACK
10
-7.696313
20
-38.691979
42
0.098491403
0
VERTEX
8
BLACK
10
7.696313
20
-38.691979
42
0.000000000
0
SEQEND
0
POLYLINE
8
CLEAR
66
1
70
1
0
VERTEX
8
CLEAR
10
-9.461881
20
-47.568086
42
-0.098491403
0
VERTEX
8
CLEAR
10
-26.945156
20
-40.326276
42
0.000000000
0
VERTEX
8
CLEAR
10
-21.917246
20
-32.801476
42
0.098491403
0
VERTEX
8
CLEAR
10
-7.696313
20
-38.691979
42
0.000000000
0
SEQEND
0
POLYLINE
8
BLACK
66
1
70
1
0
VERTEX
8
BLACK
10
-26.945156
20
-40.326276
42
-0.098491403
0
VERTEX
8
BLACK
10
-40.326276
20
-26.945156
42
0.000000000
0
VERTEX
8
BLACK
10
-32.801476
20
-21.917246
42
0.098491403
0
VERTEX
8
BLACK
10
-21.917246
20
-32.801476
42
0.000000000
0
SEQEND
0
POLYLINE
8
CLEAR
66
1
70
1
0
VERTEX
8
CLEAR
10
-40.326276
20
-26.945156
42
-0.098491403
0
VERTEX
8
CLEAR
10
-47.568086
20
-9.461881
42
0.000000000
0
VERTEX
8
CLEAR
10
-38.691979
20
-7.696313
42
0.098491403
0
VERTEX
8
CLEAR
10
-32.801476
20
-21.917246
42
0.000000000
0
SEQEND
0
POLYLINE
8
BLACK
66
1
70
1
0
VERTEX
8
BLACK
10
-47.568086
20
-9.461881
42
-0.098491403
0
VERTEX
8
BLACK
10
-47.568086
20
9.461881
42
0.000000000
0
VERTEX
8
BLACK
10
-38.691979
20
7.696313
42
0.098491403
0
VERTEX
8
BLACK
10
-38.691979
20
-7.696313
42
0.000000000
0
SEQEND
0
POLYLINE
8
CLEAR
66
1
70
1
0
VERTEX
8
CLEAR
10
-47.568086
20
9.461881
42
-0.098491403
0
VERTEX
8
CLEAR
10
-40.326276
20
26.945156
42
0.000000000
0
VERTEX
8
CLEAR
10
-32.801476
20
21.917246
42
0.098491403
0
VERTEX
8
CLEAR
10
-38.691979
20
7.696313
42
0.000000000
0
SEQEND
0
POLYLINE
8
BLACK
66
1
70
1
0
VERTEX
8
BLACK
10
-40.326276
20
26.945156
42
-0.098491403
0
VERTEX
8
BLACK
10
-26.945156
20
40.326276
42
0.000000000
0
VERTEX
8
BLACK
10
-21.917246
20
32.801476
42
0.098491403
0
VERTEX
8
BLACK
10
-32.801476
20
21.917246
42
0.000000000
0
SEQEND
0
POLYLINE
8
CLEAR
66
1
70
1
0
VERTEX
8
CLEAR
10
-26.945156
20
40.326276
42
-0.098491403
0
VERTEX
8
CLEAR
10
-9.461881
20
47.568086
42
0.000000000
0
VERTEX
8
CLEAR
10
-7.696313
20
38.691979
42
0.098491403
0
VERTEX
8
CLEAR
10
-21.917246
20
32.801476
42
0.000000000
0
SEQEND
0
POLYLINE
8
BLACK
66
1
70
1
0
VERTEX
8
BLACK
10
-9.461881
20
47.568086
42
-0.098491403
0
VERTEX
8
BLACK
10
9.461881
20
47.568086
42
0.000000000
0
VERTEX
8
BLACK
10
7.696313
20
38.691979
42
0.098491403
0
VERTEX
8
BLACK
10
-7.696313
20
38.691979
42
0.000000000
0
SEQEND
0
POLYLINE
8
CLEAR
66
1
70
1
0
VERTEX
8
CLEAR
10
9.461881
20
47.568086
42
-0.098491403
0
VERTEX
8
CLEAR
10
26.945156
20
40.326276
42
0.000000000
0
VERTEX
8
CLEAR
10
21.917246
20
32.801476
42
0.098491403
0
VERTEX
8
CLEAR
10
7.696313
20
38.691979
42
0.000000000
0
SEQEND
0
POLYLINE
8
BLACK
66
1
70
1
0
VERTEX
8
BLACK
10
26.945156
20
40.326276
42
-0.098491403
0
VERTEX
8
BLACK
10
40.326276
20
26.945156
42
0.000000000
0
VERTEX
8
BLACK
10
32.801476
20
21.917246
42
0.098491403
0
VERTEX
8
BLACK
10
21.917246
20
32.801476
42
0.000000000
0
SEQEND
0
POLYLINE
8
CLEAR
66
1
70
1
0
VERTEX
8
CLEAR
10
40.326276
20
26.945156
42
-0.098491403
0
VERTEX
8
CLEAR
10
47.568086
20
9.461881
42
0.000000000
0
VERTEX
8
CLEAR
10
38.691979
20
7.696313
42
0.098491403
0
VERTEX
8
CLEAR
10
32.801476
20
21.917246
42
0.000000000
0
SEQEND
0
POLYLINE
8
BLACK
66
1
70
1
0
VERTEX
8
BLACK
10
47.568086
20
9.461881
42
-0.049126850
0
VERTEX
8
BLACK
10
48.500000
20
0.000000
42
0.000000000
0
VERTEX
8
BLACK
10
39.450000
20
0.000000
42
0.049126850
0
VERTEX
8
BLACK
10
38.691979
20
7.696313
42
0.000000000
0
SEQEND
0
CIRCLE
8
OUTLINE
10
0
20
0
40
50.0
0
CIRCLE
8
CENTRE
10
0
20
0
40
3.25
0
LINE
8
ZERO
10
3.25
20
0
11
50.0
21
0
0
ENDSEC
0
EOF
